<svg id="Capa_1" data-name="Capa 1" xmlns="http://www.w3.org/2000/svg" xmlns:xlink="http://www.w3.org/1999/xlink" viewBox="0 0 117 34"><defs><style>.cls-1{fill:none;}.cls-2{clip-path:url(#clip-path);}.cls-3{fill:#7a7c81;}</style><clipPath id="clip-path"><rect class="cls-1" width="117" height="34"/></clipPath></defs><g class="cls-2"><path class="cls-3" d="M21.06,28.71H0v2.11H21.06Z"/><path class="cls-3" d="M6.62,12.88a5.49,5.49,0,0,0,.48.6V7.57a5.38,5.38,0,0,0-.48.59Z"/><path class="cls-3" d="M13.15,9.48l.62,2.61.77-2.54V13a4.5,4.5,0,0,0,.4-.79V9a4.2,4.2,0,0,0-.3-.6l-.15-.29-.72,2.43L13,6.7l-.32-.25v8.19a2.22,2.22,0,0,0,.42-.25V9.48Z"/><path class="cls-3" d="M.15.07v21H21.21V.07Zm16.41,10.4a5.83,5.83,0,1,1-5.83-5.8A5.83,5.83,0,0,1,16.56,10.47Zm-.4,5.59a7.77,7.77,0,0,1-11-11,7.81,7.81,0,0,1,8.32-1.74A6.94,6.94,0,0,0,11.08,3,7.25,7.25,0,0,0,5.7,5.16a7.33,7.33,0,1,0,12.53,5.41A6.63,6.63,0,0,0,18,7.94l0,0A7.79,7.79,0,0,1,16.16,16.06Z"/><path class="cls-3" d="M11.11,6.06h-.5l-.75,8.88.45.07.27-3.4h.82l.5,3.28.43-.12Zm-.45,5.13.25-3.1.44,3.1Z"/><path class="cls-3" d="M9.64,11.17V7a.59.59,0,0,0-.75-.5,4.86,4.86,0,0,0-1.07.8v6.67a4.58,4.58,0,0,0,.45.35V11.61h.44l.4,3.11a3,3,0,0,0,.48.15l-.4-3.28A.44.44,0,0,0,9.64,11.17ZM9.16,11c-.05.18-.87.1-.87.1V7.4L8.91,7c.3-.2.25.35.25.35S9.26,10.72,9.16,11Z"/><path class="cls-3" d="M2,23.87v-.24h.67v.62a.78.78,0,0,1-.27.17,1,1,0,0,1-.37.07.9.9,0,0,1-.43-.09.86.86,0,0,1-.27-.3,1.07,1.07,0,0,1-.1-.4.75.75,0,0,1,.1-.42.56.56,0,0,1,.3-.27A.81.81,0,0,1,2,22.93a.71.71,0,0,1,.45.13.54.54,0,0,1,.2.32l-.3.05a.28.28,0,0,0-.12-.18A.32.32,0,0,0,2,23.18a.48.48,0,0,0-.32.12.56.56,0,0,0-.13.38.54.54,0,0,0,.13.39A.38.38,0,0,0,2,24.2a.65.65,0,0,0,.2-.05.35.35,0,0,0,.17-.1v-.2H2Z"/><path class="cls-3" d="M3,24.42V22.88H4.16v.25H3.34v.35h.77v.25H3.34v.42h.84v.25H3Z"/><path class="cls-3" d="M4.36,23.92l.3,0a.41.41,0,0,0,.1.22.34.34,0,0,0,.44,0A.22.22,0,0,0,5.28,24a.14.14,0,0,0,0-.1.29.29,0,0,0-.1-.07s-.12,0-.24-.07a1.08,1.08,0,0,1-.35-.15.4.4,0,0,1-.15-.3.36.36,0,0,1,.07-.22.28.28,0,0,1,.2-.15.85.85,0,0,1,.3-.05A.62.62,0,0,1,5.4,23a.43.43,0,0,1,.15.35l-.3,0a1.47,1.47,0,0,0-.07-.17.42.42,0,0,0-.4,0,.14.14,0,0,0,0,.1.31.31,0,0,0,0,.1,1.2,1.2,0,0,0,.27.1,1,1,0,0,1,.33.1,1.29,1.29,0,0,1,.17.15.37.37,0,0,1,0,.24.41.41,0,0,1-.07.25.68.68,0,0,1-.2.18.7.7,0,0,1-.33.05.7.7,0,0,1-.44-.13A.48.48,0,0,1,4.36,23.92Z"/><path class="cls-3" d="M6.2,24.42V23.15H5.75v-.24H7v.24H6.52v1.27Z"/><path class="cls-3" d="M7.17,24.42V22.88h.3v1.54Z"/><path class="cls-3" d="M7.69,23.68a1,1,0,0,1,.08-.4.33.33,0,0,1,.15-.2,1.15,1.15,0,0,1,.2-.15.68.68,0,0,1,.32-.05.86.86,0,0,1,.55.2.86.86,0,0,1,.2.57.8.8,0,0,1-.2.57.7.7,0,0,1-.55.2.81.81,0,0,1-.55-.2A.74.74,0,0,1,7.69,23.68Zm.33,0a.65.65,0,0,0,.12.39.35.35,0,0,0,.3.13.42.42,0,0,0,.3-.13.65.65,0,0,0,.12-.39.66.66,0,0,0-.12-.4.41.41,0,0,0-.6,0A.56.56,0,0,0,8,23.68Z"/><path class="cls-3" d="M9.44,24.42V22.88h.3l.62,1v-1h.3v1.54h-.3l-.62-1v1Z"/><path class="cls-3" d="M1.34,25.46h.58a.89.89,0,0,1,.3,0,.34.34,0,0,1,.22.15.61.61,0,0,1,.15.24,1.85,1.85,0,0,1,.05.38,1.53,1.53,0,0,1-.05.32.85.85,0,0,1-.18.27.51.51,0,0,1-.22.13,1,1,0,0,1-.27,0H1.34Zm.3.25v1h.23a.42.42,0,0,0,.2,0c.05,0,.1,0,.12-.07a.5.5,0,0,0,.08-.15,1.1,1.1,0,0,0,0-.27,1.23,1.23,0,0,0,0-.28c0-.07,0-.12-.1-.14L2,25.71l-.25,0H1.64Z"/><path class="cls-3" d="M2.89,27V25.46H4v.25H3.21v.35H4v.25H3.21v.42h.85V27H2.89Z"/><path class="cls-3" d="M4.91,27V25.49h.32v1.26H6V27Z"/><path class="cls-3" d="M7.59,27H7.24l-.12-.35H6.5L6.37,27H6.05l.6-1.54H7ZM7,26.38l-.2-.57-.2.57Z"/><path class="cls-3" d="M9.26,26.43l.3.1a.67.67,0,0,1-.22.37.66.66,0,0,1-.4.13.71.71,0,0,1-.5-.2.86.86,0,0,1-.2-.57.94.94,0,0,1,.2-.6.62.62,0,0,1,.52-.2.52.52,0,0,1,.45.18.43.43,0,0,1,.15.27l-.3.07a.33.33,0,0,0-.12-.19.3.3,0,0,0-.2-.08.36.36,0,0,0-.28.13.59.59,0,0,0-.1.39.69.69,0,0,0,.1.42.36.36,0,0,0,.28.13.4.4,0,0,0,.22-.08A1,1,0,0,0,9.26,26.43Z"/><path class="cls-3" d="M11.2,27h-.34l-.13-.35h-.62L10,27H9.66l.6-1.54h.32Zm-.57-.62-.2-.57-.2.57Z"/><path class="cls-3" d="M11.38,27V25.49h.32v1.26h.77V27Z"/><path class="cls-3" d="M12.67,27V25.46H13V27Z"/><path class="cls-3" d="M13.27,25.46h.57a.84.84,0,0,1,.3,0,.34.34,0,0,1,.23.15.61.61,0,0,1,.15.24,1.85,1.85,0,0,1,.05.38,1.53,1.53,0,0,1-.05.32.85.85,0,0,1-.18.27.51.51,0,0,1-.22.13,1.1,1.1,0,0,1-.28,0h-.57Zm.32.25v1h.23a.42.42,0,0,0,.2,0c.05,0,.1,0,.12-.07a.5.5,0,0,0,.08-.15,1.1,1.1,0,0,0,0-.27,1.23,1.23,0,0,0,0-.28c0-.07-.05-.12-.1-.14L14,25.71l-.25,0h-.13Z"/><path class="cls-3" d="M16.21,27h-.35l-.12-.35h-.63L15,27h-.33l.6-1.54h.33Zm-.57-.62-.2-.57-.2.57Z"/><path class="cls-3" d="M16.38,25.46h.55a.84.84,0,0,1,.3,0,.32.32,0,0,1,.22.15.45.45,0,0,1,.15.24,1.35,1.35,0,0,1,0,.38,1.07,1.07,0,0,1,0,.32,1,1,0,0,1-.17.27.56.56,0,0,1-.23.13,1,1,0,0,1-.27,0h-.57V25.46Zm.3.25v1h.23a.42.42,0,0,0,.2,0c.05,0,.09,0,.12-.07a.53.53,0,0,0,.07-.15.74.74,0,0,0,0-.27.83.83,0,0,0,0-.28.19.19,0,0,0-.1-.14.58.58,0,0,0-.14-.08l-.25,0h-.13Z"/><path class="cls-3" d="M28.66,14.52V.25h1.89V14.52Z"/><path class="cls-3" d="M33.24,9.93,35,9.78a3.79,3.79,0,0,0,.6,1.76,3.44,3.44,0,0,0,1.44,1.12,5.62,5.62,0,0,0,2.19.42,5.15,5.15,0,0,0,1.92-.32,2.91,2.91,0,0,0,1.25-.87,2,2,0,0,0,.4-1.22,1.79,1.79,0,0,0-.4-1.17,2.93,2.93,0,0,0-1.3-.84c-.37-.15-1.24-.37-2.54-.69a13.49,13.49,0,0,1-2.76-.9,3.6,3.6,0,0,1-1.52-1.34A3.33,3.33,0,0,1,33.81,4a3.5,3.5,0,0,1,.62-2A3.71,3.71,0,0,1,36.23.52,6.86,6.86,0,0,1,38.84,0a7.13,7.13,0,0,1,2.82.53,4,4,0,0,1,1.86,1.51,4.37,4.37,0,0,1,.7,2.26l-1.82.12a2.85,2.85,0,0,0-1-2,3.85,3.85,0,0,0-2.49-.7,3.94,3.94,0,0,0-2.49.62,1.88,1.88,0,0,0-.8,1.52,1.65,1.65,0,0,0,.55,1.26,7.87,7.87,0,0,0,2.86,1,17.74,17.74,0,0,1,3.16.92,4.34,4.34,0,0,1,1.85,1.46,3.64,3.64,0,0,1,.59,2A3.91,3.91,0,0,1,44,12.68a4.46,4.46,0,0,1-1.87,1.57,6.66,6.66,0,0,1-2.77.57,8,8,0,0,1-3.26-.57A4.52,4.52,0,0,1,34,12.53,5.23,5.23,0,0,1,33.24,9.93Z"/><path class="cls-3" d="M46.66,7.57A7.77,7.77,0,0,1,48.58,2a6.48,6.48,0,0,1,4.93-2,6.88,6.88,0,0,1,3.56.94,6,6,0,0,1,2.41,2.63,8.63,8.63,0,0,1,.85,3.83,8.54,8.54,0,0,1-.87,3.87A5.81,5.81,0,0,1,57,13.85a7.08,7.08,0,0,1-3.46.87,6.79,6.79,0,0,1-3.61-1,6.28,6.28,0,0,1-2.42-2.66A7.75,7.75,0,0,1,46.66,7.57Zm1.94,0A5.76,5.76,0,0,0,50,11.66a4.84,4.84,0,0,0,7,0,6,6,0,0,0,1.37-4.24,7.38,7.38,0,0,0-.59-3,4.47,4.47,0,0,0-1.75-2,4.65,4.65,0,0,0-2.54-.72A4.83,4.83,0,0,0,50,3C49.1,3.92,48.6,5.46,48.6,7.59Z"/><path class="cls-3" d="M28,30.4l1.61-.15a2.74,2.74,0,0,0,.8,1.67,2.24,2.24,0,0,0,1.5.52,2.72,2.72,0,0,0,1.36-.35,3,3,0,0,0,1-.94,6.1,6.1,0,0,0,.62-1.62,8.36,8.36,0,0,0,.25-2.06v-.34a4,4,0,0,1-1.37,1.31,3.64,3.64,0,0,1-1.89.5A3.85,3.85,0,0,1,29,27.7a4.45,4.45,0,0,1-1.17-3.25A4.63,4.63,0,0,1,29,21.09a4.12,4.12,0,0,1,3.08-1.26,4.57,4.57,0,0,1,2.47.72,4.5,4.5,0,0,1,1.69,2.06,10.22,10.22,0,0,1,.58,3.87,12.47,12.47,0,0,1-.58,4.19,4.87,4.87,0,0,1-1.69,2.39,4.43,4.43,0,0,1-2.64.82,3.9,3.9,0,0,1-2.64-.9A4.1,4.1,0,0,1,28,30.4Zm6.92-6a3.29,3.29,0,0,0-.77-2.31,2.45,2.45,0,0,0-1.87-.84,2.59,2.59,0,0,0-2,.92,3.46,3.46,0,0,0-.84,2.38,3,3,0,0,0,.79,2.13,2.58,2.58,0,0,0,2,.82,2.49,2.49,0,0,0,1.92-.82A3.26,3.26,0,0,0,34.91,24.37Z"/><path class="cls-3" d="M38.42,26.83a12.71,12.71,0,0,1,.5-3.92,4.57,4.57,0,0,1,1.49-2.29,3.81,3.81,0,0,1,2.49-.79,4,4,0,0,1,1.94.45,3.52,3.52,0,0,1,1.37,1.29,6.18,6.18,0,0,1,.85,2,14,14,0,0,1,.3,3.25,12.88,12.88,0,0,1-.5,3.9A4.59,4.59,0,0,1,45.37,33a3.8,3.8,0,0,1-2.49.8,3.86,3.86,0,0,1-3.14-1.42C38.89,31.25,38.42,29.38,38.42,26.83Zm1.74,0c0,2.26.25,3.75.8,4.49a2.27,2.27,0,0,0,3.91,0c.52-.74.79-2.23.79-4.49s-.27-3.75-.79-4.49a2.36,2.36,0,0,0-2-1.12,2.1,2.1,0,0,0-1.84,1Q40.16,23.44,40.16,26.83Z"/><path class="cls-3" d="M49.1,26.83a12.71,12.71,0,0,1,.5-3.92,4.57,4.57,0,0,1,1.49-2.29,3.79,3.79,0,0,1,2.49-.79,4,4,0,0,1,1.94.45,3.46,3.46,0,0,1,1.37,1.29,6.18,6.18,0,0,1,.85,2,14,14,0,0,1,.3,3.25,12.57,12.57,0,0,1-.5,3.9A4.59,4.59,0,0,1,56.05,33a3.78,3.78,0,0,1-2.49.8,3.86,3.86,0,0,1-3.14-1.42C49.57,31.25,49.1,29.38,49.1,26.83Zm1.74,0c0,2.26.28,3.75.8,4.49a2.33,2.33,0,0,0,2,1.12,2.38,2.38,0,0,0,2-1.12c.53-.74.8-2.23.8-4.49s-.27-3.75-.8-4.49a2.33,2.33,0,0,0-2-1.12,2.17,2.17,0,0,0-1.87,1Q50.84,23.44,50.84,26.83Z"/><path class="cls-3" d="M66.16,33.58h-1.7V22.86A9.8,9.8,0,0,1,62.87,24a11.38,11.38,0,0,1-1.77.87V23.28a9.85,9.85,0,0,0,2.47-1.61,6.58,6.58,0,0,0,1.49-1.84h1.1Z"/><path class="cls-3" d="M70.46,25.56V23.65h1.92v1.91Zm0,8V31.67h1.92v1.91Z"/><path class="cls-3" d="M84.71,32v1.62H75.62a3.1,3.1,0,0,1,.2-1.17,6.32,6.32,0,0,1,1.09-1.83,18.78,18.78,0,0,1,2.22-2.09,18.94,18.94,0,0,0,3-2.9,3.53,3.53,0,0,0,.79-2,2.31,2.31,0,0,0-.72-1.69,2.93,2.93,0,0,0-3.81,0,3,3,0,0,0-.75,2l-1.74-.17a4.28,4.28,0,0,1,1.35-3,4.6,4.6,0,0,1,3.13-1,4.43,4.43,0,0,1,3.14,1.1,3.55,3.55,0,0,1,1.15,2.7,4.5,4.5,0,0,1-.33,1.61,5.74,5.74,0,0,1-1.12,1.67,26.25,26.25,0,0,1-2.59,2.4A24.2,24.2,0,0,0,78.73,31a4.69,4.69,0,0,0-.72.92h6.7Z"/><path class="cls-3" d="M86.5,26.83a12.71,12.71,0,0,1,.5-3.92,4.57,4.57,0,0,1,1.49-2.29A3.77,3.77,0,0,1,91,19.83a4,4,0,0,1,1.94.45,3.52,3.52,0,0,1,1.37,1.29,6.18,6.18,0,0,1,.85,2,14,14,0,0,1,.3,3.25,12.88,12.88,0,0,1-.5,3.9A4.59,4.59,0,0,1,93.45,33a3.83,3.83,0,0,1-2.52.8,3.77,3.77,0,0,1-3.11-1.42C87,31.25,86.5,29.38,86.5,26.83Zm1.74,0c0,2.26.28,3.75.8,4.49a2.33,2.33,0,0,0,2,1.12,2.38,2.38,0,0,0,2-1.12c.53-.74.8-2.23.8-4.49s-.27-3.75-.8-4.49a2.33,2.33,0,0,0-2-1.12,2.16,2.16,0,0,0-1.87,1Q88.24,23.44,88.24,26.83Z"/><path class="cls-3" d="M103.55,33.58h-1.69V22.86A9.8,9.8,0,0,1,100.27,24a10.39,10.39,0,0,1-1.8.87V23.28a9.85,9.85,0,0,0,2.47-1.61,5.94,5.94,0,0,0,1.49-1.84h1.1V33.58Z"/><path class="cls-3" d="M107.86,30l1.77-.15a3.12,3.12,0,0,0,.92,1.94,2.52,2.52,0,0,0,1.74.64,2.67,2.67,0,0,0,2.07-.92,3.41,3.41,0,0,0,.85-2.43,3.07,3.07,0,0,0-.82-2.26,2.91,2.91,0,0,0-2.12-.84,2.84,2.84,0,0,0-1.47.37,2.72,2.72,0,0,0-1,1l-1.59-.2,1.34-7h6.85v1.62h-5.5l-.75,3.67a4.5,4.5,0,0,1,2.59-.87,4.14,4.14,0,0,1,3,1.24,4.31,4.31,0,0,1,1.25,3.2,5,5,0,0,1-1.1,3.23,4.32,4.32,0,0,1-3.61,1.66,4.52,4.52,0,0,1-3.06-1A4.11,4.11,0,0,1,107.86,30Z"/><path class="cls-3" d="M1.41,34V32h.87a1,1,0,0,1,.4.06.39.39,0,0,1,.22.18.52.52,0,0,1,.08.3.48.48,0,0,1-.13.35.69.69,0,0,1-.42.19.49.49,0,0,1,.16.1,1.48,1.48,0,0,1,.21.26l.35.53H2.82l-.26-.41-.19-.27-.13-.13-.12,0H1.67V34Zm.26-1.1h.56a1,1,0,0,0,.28,0,.31.31,0,0,0,.15-.12.3.3,0,0,0-.05-.41.45.45,0,0,0-.32-.09H1.67Z"/><path class="cls-3" d="M3.44,34V32H3.7v2Z"/><path class="cls-3" d="M4.19,32.82v-.27h.28v.27Zm0,1.15V33.7h.28V34Z"/><path class="cls-3" d="M5.63,33.52l.23,0a.45.45,0,0,0,.11.24.38.38,0,0,0,.22.07.41.41,0,0,0,.19-.05.47.47,0,0,0,.14-.14,1.38,1.38,0,0,0,.09-.23,1.45,1.45,0,0,0,0-.29v-.05a.47.47,0,0,1-.19.18.57.57,0,0,1-.28.08.54.54,0,0,1-.41-.18.68.68,0,0,1-.17-.47.65.65,0,0,1,.18-.48A.57.57,0,0,1,6.21,32a.63.63,0,0,1,.59.39,1.39,1.39,0,0,1,.09.56,1.65,1.65,0,0,1-.09.6.66.66,0,0,1-.24.34.64.64,0,0,1-.38.12.55.55,0,0,1-.38-.13A.56.56,0,0,1,5.63,33.52Zm1-.87a.49.49,0,0,0-.11-.33.37.37,0,0,0-.27-.12.35.35,0,0,0-.28.13.49.49,0,0,0-.12.34A.42.42,0,0,0,6,33a.38.38,0,0,0,.28.12A.36.36,0,0,0,6.51,33,.44.44,0,0,0,6.62,32.65Z"/><path class="cls-3" d="M7.12,33a2.07,2.07,0,0,1,.07-.56.71.71,0,0,1,.22-.33A.51.51,0,0,1,7.76,32a.61.61,0,0,1,.28.06.49.49,0,0,1,.2.18,1,1,0,0,1,.12.3,1.83,1.83,0,0,1,.05.46,1.71,1.71,0,0,1-.08.56.59.59,0,0,1-.21.33.52.52,0,0,1-.36.12.51.51,0,0,1-.44-.21A1.28,1.28,0,0,1,7.12,33Zm.25,0a1.32,1.32,0,0,0,.11.65.33.33,0,0,0,.28.16A.31.31,0,0,0,8,33.65,1.19,1.19,0,0,0,8.16,33,1.15,1.15,0,0,0,8,32.36a.32.32,0,0,0-.28-.16.28.28,0,0,0-.26.14A1.17,1.17,0,0,0,7.37,33Z"/><path class="cls-3" d="M8.65,33a2.07,2.07,0,0,1,.07-.56.71.71,0,0,1,.22-.33A.51.51,0,0,1,9.29,32a.61.61,0,0,1,.28.06.49.49,0,0,1,.2.18,1,1,0,0,1,.12.3,1.83,1.83,0,0,1,0,.46,2.07,2.07,0,0,1-.07.56.66.66,0,0,1-.22.33.58.58,0,0,1-.8-.09A1.28,1.28,0,0,1,8.65,33Zm.25,0a1.32,1.32,0,0,0,.11.65.33.33,0,0,0,.28.16.34.34,0,0,0,.29-.16A1.32,1.32,0,0,0,9.69,33a1.27,1.27,0,0,0-.11-.64.34.34,0,0,0-.29-.16.28.28,0,0,0-.26.14A1.17,1.17,0,0,0,8.9,33Z"/><path class="cls-3" d="M10.18,33a1.71,1.71,0,0,1,.08-.56.63.63,0,0,1,.21-.33.52.52,0,0,1,.36-.11.6.6,0,0,1,.27.06.49.49,0,0,1,.2.18.82.82,0,0,1,.12.3,1.83,1.83,0,0,1,.05.46,1.74,1.74,0,0,1-.07.56.66.66,0,0,1-.22.33.51.51,0,0,1-.35.12.54.54,0,0,1-.45-.21A1.28,1.28,0,0,1,10.18,33Zm.25,0a1.19,1.19,0,0,0,.12.65.32.32,0,0,0,.28.16.33.33,0,0,0,.28-.16,1.32,1.32,0,0,0,.11-.65,1.27,1.27,0,0,0-.11-.64.34.34,0,0,0-.29-.16.28.28,0,0,0-.26.14A1.17,1.17,0,0,0,10.43,33Z"/><path class="cls-3" d="M11.69,33.38v-.24h.74v.24Z"/><path class="cls-3" d="M13.54,34H13.3V32.43a1.14,1.14,0,0,1-.23.17.93.93,0,0,1-.25.12v-.23a1.41,1.41,0,0,0,.35-.23,1,1,0,0,0,.22-.26h.15Z"/><path class="cls-3" d="M14.94,34V33.5h-.86v-.22L15,32h.2v1.28h.27v.22h-.27V34Zm0-.69v-.89l-.62.89Z"/><path class="cls-3" d="M16.47,34V33.5h-.85v-.22L16.51,32h.2v1.28H17v.22h-.27V34Zm0-.69v-.89l-.62.89Z"/><path class="cls-3" d="M18.48,32.49h-.24a.41.41,0,0,0-.09-.2.34.34,0,0,0-.24-.11.38.38,0,0,0-.21.07.66.66,0,0,0-.18.24,1.38,1.38,0,0,0-.06.46.45.45,0,0,1,.21-.2.58.58,0,0,1,.26-.06.59.59,0,0,1,.42.17.67.67,0,0,1,.17.46.82.82,0,0,1-.08.35.57.57,0,0,1-.22.24.59.59,0,0,1-.32.09.63.63,0,0,1-.49-.22,1.13,1.13,0,0,1-.2-.74,1.31,1.31,0,0,1,.22-.83.59.59,0,0,1,.49-.22.53.53,0,0,1,.38.13A.52.52,0,0,1,18.48,32.49Zm-1,.85a.53.53,0,0,0,.06.24.39.39,0,0,0,.14.17.42.42,0,0,0,.21.06.35.35,0,0,0,.26-.12.53.53,0,0,0,.11-.34.46.46,0,0,0-.11-.32.34.34,0,0,0-.27-.12.36.36,0,0,0-.28.12A.41.41,0,0,0,17.49,33.34Z"/><path class="cls-3" d="M20,32.49h-.24a.41.41,0,0,0-.09-.2.32.32,0,0,0-.44,0,.49.49,0,0,0-.18.24A1.14,1.14,0,0,0,19,33a.57.57,0,0,1,.21-.2.63.63,0,0,1,.27-.06.58.58,0,0,1,.41.17.67.67,0,0,1,.17.46.82.82,0,0,1-.08.35.57.57,0,0,1-.22.24.59.59,0,0,1-.32.09.63.63,0,0,1-.49-.22,1.13,1.13,0,0,1-.19-.74,1.31,1.31,0,0,1,.21-.83.6.6,0,0,1,.49-.22.53.53,0,0,1,.56.49Zm-1,.85a.53.53,0,0,0,.06.24.35.35,0,0,0,.15.17.36.36,0,0,0,.2.06.34.34,0,0,0,.26-.12.53.53,0,0,0,.11-.34.46.46,0,0,0-.11-.32.34.34,0,0,0-.27-.12.38.38,0,0,0-.28.12A.41.41,0,0,0,19,33.34Z"/></g></svg>